<?xml version="1.0" encoding="UTF-8" standalone="no"?>
<svg
   width="256"
   height="255.995"
   viewBox="0 0 256 255.995"
   version="1.1"
   preserveAspectRatio="xMidYMid"
   id="svg6"
   sodipodi:docname="git_and_github_icon.svg"
   inkscape:version="1.1.2 (0a00cf5339, 2022-02-04)"
   xmlns:inkscape="http://www.inkscape.org/namespaces/inkscape"
   xmlns:sodipodi="http://sodipodi.sourceforge.net/DTD/sodipodi-0.dtd"
   xmlns="http://www.w3.org/2000/svg"
   xmlns:svg="http://www.w3.org/2000/svg">
  <defs
     id="defs10" />
  <sodipodi:namedview
     id="namedview8"
     pagecolor="#ffffff"
     bordercolor="#666666"
     borderopacity="1.0"
     inkscape:pageshadow="2"
     inkscape:pageopacity="0.0"
     inkscape:pagecheckerboard="0"
     showgrid="false"
     inkscape:snap-bbox="false"
     inkscape:snap-bbox-edge-midpoints="false"
     inkscape:snap-bbox-midpoints="true"
     inkscape:zoom="1.172383"
     inkscape:cx="156.09233"
     inkscape:cy="132.20935"
     inkscape:window-width="1920"
     inkscape:window-height="1005"
     inkscape:window-x="0"
     inkscape:window-y="0"
     inkscape:window-maximized="1"
     inkscape:current-layer="svg6" />
  <g
     id="g14595"
     transform="translate(0,2.9974994)">
    <path
       d="M 251.17155,113.59597 139.39805,1.8308938 c -6.43232,-6.43793 -16.8729,-6.43793 -23.31365,0 L 92.874693,25.040614 122.3173,54.483224 c 6.84241,-2.3117 14.68759,-0.7612 20.14242,4.69363 5.48012,5.48854 7.01938,13.40114 4.6515,20.26602 l 28.37524,28.375246 c 6.86488,-2.36508 14.7859,-0.83424 20.26883,4.65711 7.66259,7.6598 7.66259,20.07502 0,27.74043 -7.66542,7.66542 -20.08064,7.66542 -27.74886,0 -5.76381,-5.76943 -7.18791,-14.23537 -4.26949,-21.3362 l -26.4624,-26.462396 -0.003,69.637596 c 1.8679,0.92693 3.63187,2.16002 5.18799,3.71052 7.66261,7.6598 7.66261,20.07502 0,27.74605 -7.66541,7.66261 -20.08625,7.66261 -27.74043,0 -7.66261,-7.67103 -7.66261,-20.08625 0,-27.74605 1.89318,-1.89037 4.0841,-3.32009 6.42108,-4.28072 V 91.198014 c -2.33698,-0.95502 -4.52509,-2.37631 -6.42108,-4.28072 -5.80594,-5.79752 -7.20195,-14.31683 -4.22736,-21.44575 L 81.470664,36.444644 4.8305644,113.07914 c -6.4407498,6.44355 -6.4407498,16.88413 0,23.32207 L 116.60405,248.16908 c 6.43513,6.43796 16.8729,6.43796 23.31645,0 L 251.17155,136.92085 c 6.43793,-6.44074 6.43793,-16.88694 0,-23.32488"
       fill="#de4c36"
       id="path8"
       style="stroke-width:2.4029" />
    <g
       id="g4"
       transform="matrix(0.30685933,0,0,0.30685933,29.767715,82.134543)"
       style="fill:#ffffff">
      <path
         d="M 128.00106,0 C 57.317293,0 0,57.306694 0,128.00106 c 0,56.55422 36.6762,104.53448 87.534937,121.45984 6.397085,1.18488 8.745651,-2.77674 8.745651,-6.15757 0,-3.05229 -0.1187,-13.13543 -0.173811,-23.83115 -35.610019,7.74305 -43.124156,-15.10247 -43.124156,-15.10247 -5.822663,-14.79511 -14.212213,-18.72917 -14.212213,-18.72917 -11.61353,-7.94443 0.875413,-7.78122 0.875413,-7.78122 12.853521,0.90297 19.621544,13.19055 19.621544,13.19055 11.416403,19.56855 29.94421,13.91122 37.248503,10.64061 1.148847,-8.27297 4.466092,-13.9197 8.126712,-17.11612 -28.430781,-3.2367 -58.317761,-14.21222 -58.317761,-63.25866 0,-13.97481 5.00024,-25.393332 13.188425,-34.357306 -1.329017,-3.223979 -5.710321,-16.242832 1.239991,-33.87403 0,0 10.748715,-3.440183 35.209406,13.120595 10.210329,-2.836083 21.160409,-4.258364 32.038419,-4.307116 10.87801,0.04875 21.83657,1.471033 32.06597,4.307116 24.43102,-16.560778 35.1649,-13.120595 35.1649,-13.120595 6.96727,17.631198 2.58384,30.650051 1.25483,33.87403 8.20726,8.963974 13.17358,20.382496 13.17358,34.357306 0,49.16302 -29.94421,59.98805 -58.44706,63.15691 4.59115,3.97222 8.68206,11.76191 8.68206,23.70398 0,17.12673 -0.14837,30.91077 -0.14837,35.12674 0,3.40627 2.30405,7.39756 8.79228,6.14061 C 219.37043,232.49951 256,184.5362 256,128.00106 256,57.306694 198.69119,0 128.00106,0 Z M 47.940559,182.34021 c -0.281912,0.63589 -1.282385,0.82666 -2.193831,0.39002 -0.928405,-0.41757 -1.449837,-1.28451 -1.148847,-1.92252 0.275553,-0.65497 1.278145,-0.83726 2.204429,-0.39849 0.930524,0.41757 1.460435,1.29298 1.138249,1.93099 z m 6.29623,5.61804 c -0.610457,0.56595 -1.803817,0.30311 -2.613521,-0.59138 -0.837259,-0.89237 -0.994113,-2.08573 -0.375177,-2.66015 0.629534,-0.56595 1.78686,-0.30099 2.626239,0.59138 0.837259,0.90297 1.000472,2.08785 0.362459,2.66015 z m 4.319452,7.1881 c -0.784268,0.54475 -2.066652,0.0339 -2.859399,-1.10434 -0.784269,-1.13825 -0.784269,-2.5033 0.01696,-3.05017 0.794866,-0.54686 2.058174,-0.0551 2.861519,1.07466 0.782149,1.15733 0.782149,2.52238 -0.01908,3.07985 z m 7.305118,8.32482 c -0.701602,0.77368 -2.195951,0.56595 -3.289687,-0.48963 -1.119172,-1.03227 -1.43076,-2.49694 -0.727038,-3.27061 0.710081,-0.77579 2.212908,-0.55747 3.315123,0.48963 1.110694,1.03015 1.449837,2.50542 0.701602,3.27061 z m 9.441156,2.81037 c -0.309468,1.00259 -1.748706,1.45832 -3.198543,1.03227 -1.447716,-0.43877 -2.395197,-1.61305 -2.102686,-2.62624 0.300989,-1.00895 1.746586,-1.48375 3.207021,-1.02803 1.445597,0.43665 2.395198,1.60245 2.094208,2.622 z m 10.744432,1.19209 c 0.03603,1.05558 -1.19336,1.93099 -2.715264,1.95007 -1.530383,0.0339 -2.768255,-0.8203 -2.785212,-1.85893 0,-1.06618 1.201838,-1.93311 2.732221,-1.95855 1.521904,-0.0297 2.768255,0.81818 2.768255,1.86741 z m 10.5552,-0.40461 c 0.18229,1.03015 -0.875413,2.08785 -2.386719,2.36976 -1.48587,0.27132 -2.861519,-0.36457 -3.050168,-1.38624 -0.184409,-1.05558 0.892371,-2.11329 2.376121,-2.38672 1.513426,-0.26284 2.867879,0.3561 3.060766,1.4032 z"
         fill="#161614"
         id="path2"
         style="fill:#ffffff" />
    </g>
  </g>
</svg>
