<?xml version="1.0" encoding="UTF-8" standalone="no"?>
<svg
   width="225.728"
   height="256"
   viewBox="0 0 225.728 256"
   version="1.1"
   preserveAspectRatio="xMidYMid"
   id="svg24"
   sodipodi:docname="html_5_logo.svg"
   inkscape:version="1.1.2 (0a00cf5339, 2022-02-04)"
   xmlns:inkscape="http://www.inkscape.org/namespaces/inkscape"
   xmlns:sodipodi="http://sodipodi.sourceforge.net/DTD/sodipodi-0.dtd"
   xmlns="http://www.w3.org/2000/svg"
   xmlns:svg="http://www.w3.org/2000/svg">
  <defs
     id="defs28" />
  <sodipodi:namedview
     id="namedview26"
     pagecolor="#ffffff"
     bordercolor="#666666"
     borderopacity="1.0"
     inkscape:pageshadow="2"
     inkscape:pageopacity="0.0"
     inkscape:pagecheckerboard="0"
     showgrid="false"
     inkscape:zoom="2.2963989"
     inkscape:cx="101.89867"
     inkscape:cy="213.37756"
     inkscape:window-width="1920"
     inkscape:window-height="1005"
     inkscape:window-x="0"
     inkscape:window-y="0"
     inkscape:window-maximized="1"
     inkscape:current-layer="svg24" />
  <g
     id="g126"
     transform="matrix(0.88482669,0,0,0.88482669,-0.3938165,-62.615393)">
    <path
       d="M 255.55481,70.765714 232.31367,331.12545 127.84387,360.08791 23.661714,331.16624 0.44518681,70.765714 Z"
       fill="#e44d26"
       id="path2" />
    <path
       d="m 128,337.95024 84.4167,-23.4036 19.8611,-222.489321 H 128 Z"
       fill="#f16529"
       id="path4" />
    <path
       d="M 82.82022,155.93213 H 128 v -31.9374 H 47.917011 l 0.764483,8.56826 7.849495,88.00984 H 128 v -31.9367 H 85.738901 Z"
       fill="#ebebeb"
       id="path6" />
    <path
       d="m 90.017758,236.54189 h -32.05978 l 4.474374,50.14576 65.420658,18.16123 0.14699,-0.0408 v -33.22796 l -0.13996,0.0373 -35.568524,-9.60422 -2.273758,-25.4713 z"
       fill="#ebebeb"
       id="path8" />
    <path
       d="m 127.88958,220.57283 h 39.32695 l -3.70708,41.41996 -35.61987,9.61407 v 33.22655 l 65.47271,-18.14576 0.48035,-5.39569 7.50488,-84.07983 0.77925,-8.576 h -74.23719 z"
       fill="#ffffff"
       id="path18" />
    <path
       d="m 127.88958,155.85407 v 0.0781 h 77.14321 l 0.6407,-7.17855 1.45512,-16.19059 0.76379,-8.56826 h -80.00282 v 31.85934 z"
       fill="#ffffff"
       id="path20" />
  </g>
</svg>
